<mxfile host="" modified="2021-02-07T18:57:16.096Z" agent="5.0 (Windows NT 6.2; Win64; x64) AppleWebKit/537.36 (KHTML, like Gecko) Chrome/84.0.4147.105 Safari/537.36" etag="GnNkOSrkbwgfDr9deSuy" version="13.7.9" type="embed"><diagram id="iUXzhMKnBUXxMC7wvfug" name="Paths"><mxGraphModel dx="746" dy="567" grid="1" gridSize="10" guides="1" tooltips="1" connect="1" arrows="1" fold="1" page="1" pageScale="1" pageWidth="850" pageHeight="1100" math="0" shadow="0"><root><mxCell id="0"/><mxCell id="1" parent="0"/><object label="" type="path" id="11"><mxCell style="edgeStyle=orthogonalEdgeStyle;rounded=0;orthogonalLoop=1;jettySize=auto;html=1;exitX=0.5;exitY=0;exitDx=0;exitDy=0;" parent="1" source="10" edge="1"><mxGeometry relative="1" as="geometry"><mxPoint x="360" y="40" as="targetPoint"/><Array as="points"><mxPoint x="110" y="220"/><mxPoint x="210" y="220"/><mxPoint x="210" y="130"/><mxPoint x="280" y="130"/><mxPoint x="280" y="40"/></Array></mxGeometry></mxCell></object><object label="Test 1" type="robot" id="10"><mxCell style="whiteSpace=wrap;html=1;aspect=fixed;" parent="1" vertex="1"><mxGeometry x="70" y="320" width="80" height="80" as="geometry"/></mxCell></object><object label="" type="path" id="15"><mxCell style="edgeStyle=orthogonalEdgeStyle;orthogonalLoop=1;jettySize=auto;html=1;exitX=0.5;exitY=0;exitDx=0;exitDy=0;entryX=0.5;entryY=0;entryDx=0;entryDy=0;curved=1;" parent="1" source="13" target="14" edge="1"><mxGeometry relative="1" as="geometry"><Array as="points"><mxPoint x="320" y="230"/><mxPoint x="610" y="230"/></Array></mxGeometry></mxCell></object><object label="Test 2" type="robot" id="13"><mxCell style="ellipse;whiteSpace=wrap;html=1;aspect=fixed;" parent="1" vertex="1"><mxGeometry x="280" y="320" width="80" height="80" as="geometry"/></mxCell></object><object label="" type="path" id="16"><mxCell style="edgeStyle=orthogonalEdgeStyle;orthogonalLoop=1;jettySize=auto;html=1;exitX=0.5;exitY=1;exitDx=0;exitDy=0;entryX=0.5;entryY=1;entryDx=0;entryDy=0;rounded=0;" parent="1" source="14" target="13" edge="1"><mxGeometry relative="1" as="geometry"><Array as="points"><mxPoint x="610" y="490"/><mxPoint x="320" y="490"/></Array></mxGeometry></mxCell></object><object label="Test 3" type="robot" id="14"><mxCell style="ellipse;whiteSpace=wrap;html=1;aspect=fixed;" parent="1" vertex="1"><mxGeometry x="570" y="320" width="80" height="80" as="geometry"/></mxCell></object><object label="" type="path" id="18"><mxCell style="edgeStyle=orthogonalEdgeStyle;rounded=0;orthogonalLoop=1;jettySize=auto;html=1;exitX=0;exitY=0.5;exitDx=0;exitDy=0;entryX=1;entryY=0.5;entryDx=0;entryDy=0;" parent="1" source="17" target="13" edge="1"><mxGeometry relative="1" as="geometry"/></mxCell></object><object label="Test 4" type="robot" id="17"><mxCell style="ellipse;whiteSpace=wrap;html=1;aspect=fixed;" parent="1" vertex="1"><mxGeometry x="430" y="320" width="80" height="80" as="geometry"/></mxCell></object></root></mxGraphModel></diagram></mxfile>